<svg width="22" height="20" viewBox="0 0 22 20" fill="none" xmlns="http://www.w3.org/2000/svg">
<path d="M2.00888 8.48411C1.3079 8.48411 0.734682 9.05235 0.728557 9.7533C0.722432 10.4542 1.28572 11.0225 1.9867 11.0225L2.00888 8.48411ZM20.8459 10.6507C21.3459 10.1551 21.3529 9.35149 20.8615 8.85585L12.8548 0.778821C12.3634 0.283175 11.5598 0.283175 11.0598 0.778821C10.5598 1.27447 10.5528 2.07807 11.0441 2.57372L18.1613 9.7533L10.9187 16.9329C10.4187 17.4285 10.4116 18.2321 10.903 18.7278C11.3943 19.2234 12.1979 19.2234 12.6979 18.7278L20.8459 10.6507ZM1.9867 11.0225H19.9451L19.9673 8.48411H2.00888L1.9867 11.0225Z" fill="white"/>
</svg>
