<svg fill="none" xmlns="http://www.w3.org/2000/svg" viewBox="0 0 1627 587"><g clip-path="url(#a)"><path d="M0 76a61 61 0 0 1 68.5-60.6 6106 6106 0 0 0 1490 0A61 61 0 0 1 1627 76v488a30 30 0 0 1-30 30H30a30 30 0 0 1-30-30z" fill="#DCE7FF"/><path d="M-94 202a94 94 0 1 1 162.8-94A94 94 0 0 1-94 202m140-81a67.7 67.7 0 1 0-117.2 67.7A67.7 67.7 0 0 0 46 121.1" fill="#F6F8FF" fill-opacity=".4"/><circle cx="105" cy="259" r="39.5" transform="rotate(150 105 259)" fill="#B9CFFF" fill-opacity=".2"/><circle cx="148.7" cy="121.3" r="24.5" transform="rotate(150 148.7 121.3)" fill="#B9CFFF" fill-opacity=".2"/></g><circle cx="1455.5" cy="148.5" r="24.5" fill="#B9CFFF" fill-opacity=".2"/><circle cx="1525.5" cy="77.5" r="39.5" fill="#B9CFFF" fill-opacity=".2"/><defs><clipPath id="a"><path fill="#fff" d="M0 0h1627v587H0z"/></clipPath></defs></svg>