<svg width="25" height="24" viewBox="0 0 25 24" fill="none" xmlns="http://www.w3.org/2000/svg">
<path d="M8.91007 2L5.29007 5.63" stroke="#404040" stroke-width="1.5" stroke-miterlimit="10" stroke-linecap="round" stroke-linejoin="round"/>
<path d="M15.2901 2L18.9101 5.63" stroke="#404040" stroke-width="1.5" stroke-miterlimit="10" stroke-linecap="round" stroke-linejoin="round"/>
<path d="M2.10007 7.84998C2.10007 5.99998 3.09007 5.84998 4.32007 5.84998H19.8801C21.1101 5.84998 22.1001 5.99998 22.1001 7.84998C22.1001 9.99998 21.1101 9.84998 19.8801 9.84998H4.32007C3.09007 9.84998 2.10007 9.99998 2.10007 7.84998Z" stroke="#404040" stroke-width="1.5"/>
<path d="M9.86008 14V17.55" stroke="#404040" stroke-width="1.5" stroke-linecap="round"/>
<path d="M14.4601 14V17.55" stroke="#404040" stroke-width="1.5" stroke-linecap="round"/>
<path d="M3.60007 10L5.01007 18.64C5.33007 20.58 6.10007 22 8.96007 22H14.9901C18.1001 22 18.5601 20.64 18.9201 18.76L20.6001 10" stroke="#404040" stroke-width="1.5" stroke-linecap="round"/>
</svg>
