<svg width="84" height="102" viewBox="0 0 84 102" fill="none" xmlns="http://www.w3.org/2000/svg">
<path d="M10.2016 72.1085C21.861 83.768 40.7647 83.768 52.4242 72.1085C64.0836 60.4491 64.0836 41.5454 52.4242 29.8859C40.7647 18.2264 21.861 18.2264 10.2016 29.8859C-1.45791 41.5454 -1.4579 60.4491 10.2016 72.1085Z" fill="url(#paint0_linear_1_219)"/>
<path d="M10.2016 72.1085C21.861 83.768 40.7647 83.768 52.4242 72.1085C64.0836 60.4491 64.0836 41.5454 52.4242 29.8859C40.7647 18.2264 21.861 18.2264 10.2016 29.8859C-1.45791 41.5454 -1.4579 60.4491 10.2016 72.1085Z" fill="url(#paint1_linear_1_219)"/>
<path d="M52.4241 29.886C47.0886 24.5505 40.2351 21.6642 33.2538 21.2119C32.3222 21.9833 31.4154 22.7995 30.5433 23.6716C15.4519 38.763 15.4519 63.2308 30.5433 78.3222C31.4158 79.1948 32.3222 80.0105 33.2534 80.7824C40.2346 80.3301 47.0877 77.4442 52.4237 72.1082C64.0835 60.4493 64.0835 41.5454 52.4241 29.886Z" fill="url(#paint2_linear_1_219)"/>
<path d="M61.1336 52.4397L70.6556 52.4397C72.4675 52.4397 74.1806 53.1941 75.4647 54.4727C76.5437 55.5471 78.1194 56.1175 79.8292 55.7957C81.7153 55.4405 83.2594 53.9412 83.6558 52.0634C84.3242 48.8982 81.9281 46.1094 78.8807 46.1099C77.5558 46.1099 76.3624 46.6404 75.488 47.4992C74.187 48.7774 72.4785 49.5556 70.6542 49.5552L61.1332 49.5552C61.1803 50.5161 61.1803 51.4783 61.1336 52.4397Z" fill="url(#paint3_linear_1_219)"/>
<path d="M65.6762 40.373C66.7552 41.4475 68.3314 42.0183 70.0412 41.6956C71.9268 41.3399 73.471 39.8406 73.8674 37.9628C74.5353 34.7981 72.1397 32.0097 69.0922 32.0092C67.7674 32.0092 66.5739 32.5398 65.6996 33.3986C64.3985 34.6768 62.6901 35.455 60.8658 35.4546L56.8034 35.4546C57.3774 36.3939 57.8989 37.3557 58.3599 38.3395C58.3599 38.3395 59.5428 38.3395 60.8658 38.3395C62.6782 38.34 64.3921 39.0944 65.6762 40.373Z" fill="url(#paint4_linear_1_219)"/>
<path d="M65.6762 40.373C66.7552 41.4475 68.3314 42.0183 70.0412 41.6956C71.9268 41.3399 73.471 39.8406 73.8674 37.9628C74.5353 34.7981 72.1397 32.0097 69.0922 32.0092C67.7674 32.0092 66.5739 32.5398 65.6996 33.3986C64.3985 34.6768 62.6901 35.455 60.8658 35.4546L56.8034 35.4546C57.3774 36.3939 57.8989 37.3557 58.3599 38.3395C58.3599 38.3395 59.5428 38.3395 60.8658 38.3395C62.6782 38.34 64.3921 39.0944 65.6762 40.373Z" fill="url(#paint5_linear_1_219)"/>
<path d="M65.6762 68.5716C66.7552 69.6461 68.3309 70.2165 70.0407 69.8947C71.9268 69.5394 73.4709 68.0402 73.8674 66.1623C74.5362 62.9976 72.1397 60.2083 69.0922 60.2088C67.7674 60.2088 66.5739 60.7394 65.6995 61.5982C64.3985 62.8763 62.6901 63.6545 60.8658 63.6541L58.3598 63.6541C57.8993 64.6383 57.3774 65.5997 56.8038 66.5395C56.8038 66.5395 58.8794 66.5395 60.8676 66.54C62.6795 66.5391 64.3921 67.293 65.6762 68.5716Z" fill="url(#paint6_linear_1_219)"/>
<path d="M47.0859 46.1094C44.0389 46.1094 41.6419 48.8983 42.3107 52.0629C42.7072 53.9408 44.2513 55.44 46.1374 55.7953C47.8477 56.1176 49.4229 55.5467 50.5019 54.4723C51.786 53.1937 53.4986 52.4397 55.311 52.4392L61.134 52.4392C61.1803 51.4783 61.1803 50.5152 61.134 49.5543L55.3119 49.5543C53.4881 49.5543 51.7792 48.7765 50.4781 47.4983C49.6047 46.6395 48.4108 46.1094 47.0859 46.1094Z" fill="white"/>
<path d="M37.2966 32.0097C34.2496 32.0097 31.8535 34.7985 32.5214 37.9632C32.9179 39.841 34.462 41.3403 36.3476 41.696C38.0579 42.0183 39.6336 41.4479 40.7126 40.3734C41.9967 39.0948 43.7093 38.3409 45.5217 38.3404L58.3598 38.3404C57.8993 37.3562 57.3774 36.3948 56.8034 35.4554L45.5226 35.4554C43.6988 35.4554 41.9898 34.6776 40.6888 33.3995C39.8153 32.5407 38.6214 32.0097 37.2966 32.0097Z" fill="white"/>
<path d="M37.297 60.2089C34.2496 60.2084 31.853 62.9977 32.5219 66.1624C32.9183 68.0402 34.4624 69.5395 36.3485 69.8947C38.0588 70.217 39.6341 69.6461 40.7131 68.5717C41.9972 67.2931 43.7097 66.5391 45.5221 66.5387L56.8038 66.5387C57.3774 65.5998 57.8993 64.6375 58.3598 63.6533L45.5226 63.6532C43.6987 63.6532 41.9898 62.8755 40.6888 61.5973C39.8153 60.7394 38.6214 60.2084 37.297 60.2089Z" fill="white"/>
<defs>
<linearGradient id="paint0_linear_1_219" x1="6.45173" y1="83.8779" x2="43.3072" y2="35.1335" gradientUnits="userSpaceOnUse">
<stop stop-color="#025CAD"/>
<stop offset="0.064" stop-color="#0968B3"/>
<stop offset="0.4777" stop-color="#36B4D9"/>
<stop offset="0.7733" stop-color="#52E3F0"/>
<stop offset="0.9204" stop-color="#5DF5F9"/>
</linearGradient>
<linearGradient id="paint1_linear_1_219" x1="1.99594" y1="50.988" x2="23.0792" y2="50.988" gradientUnits="userSpaceOnUse">
<stop stop-color="#768FBF"/>
<stop offset="1" stop-color="#C8DBFF"/>
</linearGradient>
<linearGradient id="paint2_linear_1_219" x1="14.7217" y1="57.9816" x2="66.2398" y2="40.1484" gradientUnits="userSpaceOnUse">
<stop stop-color="#768FBF"/>
<stop offset="1" stop-color="#C8DBFF"/>
</linearGradient>
<linearGradient id="paint3_linear_1_219" x1="82.5553" y1="52.1988" x2="62.1724" y2="51.3917" gradientUnits="userSpaceOnUse">
<stop stop-color="#768FBF"/>
<stop offset="1" stop-color="#C8DBFF"/>
</linearGradient>
<linearGradient id="paint4_linear_1_219" x1="35.6134" y1="46.6962" x2="73.4044" y2="32.3271" gradientUnits="userSpaceOnUse">
<stop stop-color="#5DF5F9"/>
<stop offset="1" stop-color="#5DF5F9"/>
</linearGradient>
<linearGradient id="paint5_linear_1_219" x1="73.5771" y1="37.7161" x2="58.039" y2="37.7104" gradientUnits="userSpaceOnUse">
<stop stop-color="#768FBF"/>
<stop offset="1" stop-color="#C8DBFF"/>
</linearGradient>
<linearGradient id="paint6_linear_1_219" x1="73.506" y1="66.1087" x2="58.1104" y2="64.8988" gradientUnits="userSpaceOnUse">
<stop stop-color="#768FBF"/>
<stop offset="1" stop-color="#C8DBFF"/>
</linearGradient>
</defs>
</svg>
