<svg width="16" height="15" viewBox="0 0 16 15" fill="none" xmlns="http://www.w3.org/2000/svg">
<path d="M7.04899 1.42705C7.34834 0.505739 8.65175 0.50574 8.9511 1.42705L10.0207 4.71885C10.1545 5.13087 10.5385 5.40983 10.9717 5.40983H14.4329C15.4017 5.40983 15.8044 6.64945 15.0207 7.21885L12.2205 9.25329C11.8701 9.50793 11.7234 9.9593 11.8573 10.3713L12.9268 13.6631C13.2262 14.5844 12.1717 15.3506 11.388 14.7812L8.58783 12.7467C8.23734 12.4921 7.76275 12.4921 7.41226 12.7467L4.61209 14.7812C3.82838 15.3506 2.7739 14.5844 3.07325 13.6631L4.14282 10.3713C4.27669 9.9593 4.13003 9.50793 3.77955 9.25329L0.979378 7.21885C0.195665 6.64945 0.598441 5.40983 1.56716 5.40983H5.02836C5.46159 5.40983 5.84555 5.13087 5.97942 4.71885L7.04899 1.42705Z" fill="#FFE251"/>
</svg>
